<svg width="152" height="48" viewBox="0 0 152 48" fill="none" xmlns="http://www.w3.org/2000/svg">
<mask id="mask0_1089_5842" style="mask-type:alpha" maskUnits="userSpaceOnUse" x="0" y="0" width="48" height="48">
<rect width="48" height="48" rx="10" fill="#D9D9D9"/>
</mask>
<g mask="url(#mask0_1089_5842)">
<path fill-rule="evenodd" clip-rule="evenodd" d="M11.0213 26.6708V33.3609H5.26936V30.0158C5.26936 28.1799 6.92931 26.6708 8.96564 26.6708H11.0213ZM12.4978 15.2227L0 27.4109V48.0579H46.6425L12.4978 15.2227ZM15.2001 26.6708C17.2364 26.6708 18.8964 28.1799 18.8964 30.0158V33.3609H13.1348V26.6708H15.2001ZM11.0213 35.1199V42.4444H5.26936V35.1199H11.0213ZM18.8964 35.1199V42.4444H13.1348V35.1199H18.8964Z" fill="#1F1F25"/>
<path fill-rule="evenodd" clip-rule="evenodd" d="M32.2338 25.3378H34.7334V27.8273H32.2338V25.3378ZM32.2338 22.1561H34.7334V24.6457H32.2338V22.1561ZM35.6309 25.3378H38.1305V27.8273H35.6309V25.3378ZM35.6309 24.6457V22.1561H38.1305V24.6457H35.6309ZM25.0826 22.7232L48.0033 44.764V30.759L35.0712 17.3885L29.3772 23.3384L27.0899 21.1372L34.8782 13.236L40.3695 19.3397V15.8697H44.4422V22.8097L47.9937 26.5489V0H0V22.5598L12.3724 10.4965L19.7746 17.6095V12.0249H25.0826V22.7232Z" fill="#0a92d3"/>
</g>
<path d="M76.8032 35.0426H69.1914V12H76.8694C80.223 12 82.9699 13.0712 85.1101 15.2136C87.2502 17.3333 88.3203 19.9771 88.3203 23.1452C88.3203 26.8375 87.2612 29.7434 85.1431 31.8631C83.0471 33.9827 80.2672 35.0426 76.8032 35.0426ZM76.7039 16.3418H74.4204V30.7349H76.737C78.7889 30.7349 80.3664 30.0739 81.4696 28.752C82.5948 27.4301 83.1575 25.5611 83.1575 23.1452C83.1575 21.0939 82.5948 19.4529 81.4696 18.2222C80.3444 16.9686 78.7558 16.3418 76.7039 16.3418Z" fill="#1F1F25"/>
<path d="M99.3944 16.2735H96.8792V22.7691H99.2951C101.501 22.7691 102.605 21.6523 102.605 19.4187C102.605 18.4387 102.318 17.6752 101.744 17.1282C101.17 16.5584 100.387 16.2735 99.3944 16.2735ZM96.8792 35.0426H91.7825V12H99.4937C101.987 12 103.984 12.6838 105.484 14.0513C107.006 15.4188 107.767 17.1965 107.767 19.3846C107.767 22.6666 106.41 24.9344 103.697 26.1879L109.356 35.0426H103.266L98.4346 27.0426H96.8792V35.0426Z" fill="#1F1F25"/>
<path d="M117.539 35.0426H112.442V12H117.539V35.0426Z" fill="#1F1F25"/>
<path d="M135.5 35.0426H122.163V12H127.259V30.4272H135.5V35.0426Z" fill="#1F1F25"/>
<path d="M151.659 35.0426H138.322V12H143.419V30.4272H151.659V35.0426Z" fill="#1F1F25"/>
</svg>
